<svg width="24" height="24" viewBox="0 0 24 24" fill="none" xmlns="http://www.w3.org/2000/svg">
<path d="M5 11C6.09375 11 7 10.125 7 9C7 7.90625 6.09375 7 5 7C3.875 7 3 7.90625 3 9C3 10.125 3.875 11 5 11ZM19 11C20.0938 11 21 10.125 21 9C21 7.90625 20.0938 7 19 7C17.875 7 17 7.90625 17 9C17 10.125 17.875 11 19 11ZM20 12H18C17.4375 12 16.9375 12.25 16.5625 12.5938C17.8438 13.2812 18.7188 14.5312 18.9375 16H21C21.5312 16 22 15.5625 22 15V14C22 12.9062 21.0938 12 20 12ZM12 12C13.9062 12 15.5 10.4375 15.5 8.5C15.5 6.59375 13.9062 5 12 5C10.0625 5 8.5 6.59375 8.5 8.5C8.5 10.4375 10.0625 12 12 12ZM14.375 13H14.125C13.4688 13.3125 12.75 13.5 12 13.5C11.2188 13.5 10.5 13.3125 9.84375 13H9.59375C7.59375 13 6 14.625 6 16.625V17.5C6 18.3438 6.65625 19 7.5 19H16.5C17.3125 19 18 18.3438 18 17.5V16.625C18 14.625 16.375 13 14.375 13ZM7.40625 12.5938C7.03125 12.25 6.53125 12 6 12H4C2.875 12 2 12.9062 2 14V15C2 15.5625 2.4375 16 3 16H5.03125C5.25 14.5312 6.125 13.2812 7.40625 12.5938Z" fill="#3E352C"/>
</svg>
